<svg xmlns="http://www.w3.org/2000/svg" xmlns:xlink="http://www.w3.org/1999/xlink" xml:space="preserve" width="1000px" height="523px" version="1.1" shape-rendering="geometricPrecision" text-rendering="geometricPrecision" image-rendering="optimizeQuality" fill-rule="evenodd" clip-rule="evenodd" viewBox="0 0 2800 1465"><g><metadata/><path fill="#008DD2" d="M647 1020c-1 2 -1 4 -2 6 -1 3 -1 5 -1 9l0 32 214 0 29 0 0 -216c-2 9 -6 17 -10 25 -5 9 -12 17 -21 24 -7 7 -16 13 -27 20l0 0c-8 5 -20 12 -34 20 -13 7 -29 15 -47 25 -17 8 -32 16 -45 23 -13 7 -24 13 -34 18 -7 4 -13 8 -18 11 -2 2 -4 3 -5 4zm-27 -24c-5 10 -7 20 -7 31l0 63 245 0 0 42 -349 0 0 -103c0 -16 6 -31 18 -43 9 -9 22 -19 38 -28 16 -9 38 -21 64 -34 27 -13 45 -23 54 -28 7 -4 16 -9 27 -15 11 -6 20 -12 27 -16 6 -5 11 -9 14 -14 3 -5 5 -10 5 -17l0 -81c0 -8 -2 -15 -6 -20 -4 -6 -14 -9 -27 -9l-61 0c-11 0 -19 3 -25 9 -6 5 -9 12 -9 23l0 92 -102 0 0 -107c0 -17 4 -30 12 -40 9 -12 23 -18 42 -18l218 0c18 0 32 3 42 10 14 10 20 21 20 35l0 80c0 18 -3 33 -10 44 -7 12 -20 23 -38 34 -16 11 -42 25 -78 43 -36 18 -62 32 -80 42 -18 10 -29 19 -34 27zm300 -249c0 -21 5 -37 16 -47 12 -12 28 -18 47 -18l221 0c23 0 40 6 51 18 11 10 17 26 17 47l0 319c0 23 -5 39 -17 47 -16 12 -33 18 -51 18l-221 0c-19 0 -35 -6 -47 -18 -11 -10 -16 -26 -16 -47l0 -319zm103 313c0 7 2 14 6 21 5 5 12 8 22 8l89 0c8 0 15 -3 20 -8 5 -7 8 -15 8 -23l0 -304c0 -8 -2 -15 -7 -23 -3 -6 -11 -9 -24 -9l-87 0c-10 0 -17 3 -22 10 -4 6 -6 13 -6 19l0 307zm502 -379l0 450 -102 0 0 -336 -87 0 0 -38c34 0 63 -8 87 -24 17 -13 30 -30 37 -52l65 0zm227 169c-15 0 -27 3 -37 10 -12 9 -18 20 -18 34l0 13 -101 0 0 -226 352 0 0 42 -249 0 0 104c1 -2 4 -5 7 -9 3 -4 7 -6 12 -8 8 -2 18 -3 32 -3l128 0c27 0 47 8 59 23 8 10 11 28 11 56l0 179c0 23 -5 39 -17 47 -16 12 -33 18 -51 18l-221 0c-19 0 -35 -6 -47 -18 -11 -10 -16 -26 -16 -47l0 -81 103 0 0 75c0 7 2 14 6 21 5 5 12 8 22 8l89 0c9 0 16 -3 20 -8 5 -9 8 -17 8 -23l0 -165c0 -10 -2 -20 -7 -31 -5 -9 -16 -13 -31 -13l-56 0zm-1121 160c-2 4 -3 7 -4 11 -1 4 -1 8 -1 13l0 51 233 0 13 0 0 13 0 42 0 13 -13 0 -349 0 -13 0 0 -13 0 -103c0 -10 2 -19 6 -28 4 -9 9 -17 16 -24l0 0c5 -5 11 -10 18 -15 6 -5 14 -10 22 -14l0 0c8 -5 18 -10 28 -16l0 0c10 -5 22 -12 37 -19l0 0c14 -7 24 -12 32 -16 10 -5 17 -9 22 -12l0 0c5 -3 10 -5 15 -8 1 0 2 -1 12 -7l0 0c5 -3 10 -6 14 -8 4 -3 8 -5 11 -7 2 -2 5 -4 7 -6 2 -2 3 -3 4 -5l0 0c1 -1 1 -3 2 -4 0 -2 1 -4 1 -6l0 -81c0 -3 0 -5 -1 -7l0 0c-1 -2 -1 -4 -3 -5l0 0c-1 -1 -2 -2 -4 -2 -3 -1 -8 -2 -13 -2l-61 0c-4 0 -8 0 -10 1 -2 1 -4 2 -5 3l-1 1 -1 1c-1 1 -2 3 -3 4 -1 2 -1 5 -1 8l0 92 0 13 -13 0 -102 0 -13 0 0 -13 0 -107c0 -10 1 -18 4 -26 3 -8 6 -16 12 -22l0 0c6 -8 13 -13 22 -17 9 -4 18 -6 29 -6l218 0c10 0 19 1 27 3 9 2 16 5 22 10l0 0c8 6 15 12 19 20 5 8 7 16 7 25l0 80c0 10 -1 19 -3 27 -2 9 -5 16 -9 23 -4 7 -10 14 -17 20 -7 6 -15 12 -25 18l0 0c-8 5 -19 12 -33 19 -13 7 -29 15 -47 24 -17 9 -32 16 -45 23 -14 7 -25 13 -34 18 -8 5 -15 9 -20 13 -4 4 -7 7 -9 9zm276 -255c0 -12 2 -23 5 -32 3 -10 9 -18 15 -25l0 0c7 -7 16 -13 25 -16 9 -4 20 -5 31 -5l221 0c13 0 24 2 34 5l0 0c10 4 19 9 26 17 7 6 12 15 15 24 3 9 5 20 5 32l0 319c0 13 -2 24 -5 33 -4 10 -9 18 -17 24l0 0c-9 7 -18 12 -28 16 -10 4 -20 5 -31 5l-221 0c-23 0 -41 -7 -56 -22l0 0c-7 -6 -12 -15 -15 -24 -3 -9 -5 -20 -5 -32l0 -319zm129 313c0 2 0 5 1 7 1 2 2 4 3 7 1 1 2 1 3 2 2 1 5 1 9 1l89 0c3 0 5 0 7 -1 2 -1 3 -2 4 -3 2 -2 3 -5 4 -7 1 -2 1 -5 1 -7l0 -304c0 -5 -2 -10 -5 -16l0 -1 0 -1c0 0 0 0 -1 -1 -2 -1 -6 -1 -11 -1l-87 0c-3 0 -6 0 -8 1 -2 1 -3 2 -4 3l0 0c-1 2 -2 4 -3 6 -1 2 -1 4 -1 6l0 307zm502 -379l0 450 0 13 -13 0 -102 0 -13 0 0 -13 0 -323 -74 0 -13 0 0 -13 0 -38 0 -13 13 0c16 0 30 -2 44 -6 13 -4 25 -9 36 -16 7 -6 14 -12 19 -20 5 -8 10 -17 13 -26l3 -9 9 0 65 0 13 0 0 13zm214 182c-12 0 -22 3 -29 8 -4 3 -7 7 -9 11 -2 4 -3 8 -3 13l0 13 0 13 -13 0 -101 0 -13 0 0 -13 0 -226 0 -13 13 0 352 0 13 0 0 13 0 42 0 13 -13 0 -236 0 0 64c1 0 2 -1 2 -1 4 -1 10 -2 16 -3 6 -1 12 -1 19 -1l128 0c31 0 54 9 69 27l0 0c5 6 9 15 11 27 2 10 3 23 3 37l0 179c0 13 -2 24 -5 33 -4 10 -9 18 -17 24l0 0c-9 7 -18 12 -28 16 -10 4 -20 5 -31 5l-221 0c-23 0 -41 -7 -56 -22l0 0c-7 -6 -12 -15 -15 -24 -3 -9 -5 -20 -5 -32l0 -81 0 -13 13 0 103 0 13 0 0 13 0 75c0 2 0 5 1 7 1 2 2 4 3 7 1 1 2 1 3 2 2 1 5 1 9 1l89 0c3 0 5 0 7 -1 1 0 2 -1 3 -2 2 -3 4 -7 5 -9 1 -2 1 -4 1 -6l0 -165c0 -4 0 -8 -1 -13 -1 -4 -2 -8 -4 -12 -1 -2 -3 -3 -5 -4 -3 -1 -8 -2 -14 -2l-56 0zm-692 -298l-4 0 -22 51 -28 0 54 -130 28 0 -22 55 3 0 22 -55 28 0 -54 130 -28 0 22 -51zm85 -53l-34 81 -4 0 35 -81 3 0zm-27 105c7 0 12 -6 18 -18l41 -95c1 -3 2 -5 2 -7 0 -6 -4 -10 -12 -10l-27 0c-10 0 -17 6 -21 17l-41 96c-2 3 -2 6 -2 9 0 6 5 8 15 9l28 0zm109 -88l-30 70c-2 6 -5 9 -7 12 -4 4 -11 6 -20 6l-18 0c-4 0 -7 -1 -10 -4 -3 -2 -4 -5 -4 -9 0 -2 0 -3 1 -5l48 -112 27 0 -4 11 31 0 -11 26 -31 0 -29 67 4 0 26 -61 28 0zm83 -25l-43 97c-3 6 -5 10 -8 12 -3 2 -6 3 -11 3l-14 0 21 -51 -3 0 -22 51 -28 0 55 -130 38 0c10 0 15 4 15 11 0 2 0 4 -1 6zm-34 5l-17 39 3 0 17 -39 -4 0zm72 3l-12 27 -3 0 12 -27 3 0zm-44 104l28 0 21 -51c1 -2 1 -5 1 -7 0 -5 -3 -8 -10 -8 6 0 10 -1 12 -3 3 -2 6 -8 10 -16l12 -27c1 -3 2 -5 2 -8 0 -6 -5 -9 -15 -9l-39 0 -55 130 28 0 22 -51 3 0 -22 51zm41 -17l48 -112 28 0 -46 105 4 0 45 -105 28 0 -56 130 -38 0c-5 0 -8 -1 -11 -3 -3 -2 -4 -5 -4 -8 0 -2 0 -4 1 -6zm-293 43l-13 0 -3 0 -28 0 -7 0 -31 0 15 -35 54 -130 7 -16 17 0 14 0 14 0 3 0 28 0 6 0 13 0 19 0 8 0c1 0 2 0 4 0l0 0 17 0 27 0 36 0 0 0 7 0 38 0 0 0c5 0 10 1 14 2l1 -2 17 0 39 0c3 0 6 0 9 1l0 -1 17 0 15 0 13 0 3 0 28 0 7 0 31 0 -15 35 -56 130 -7 15 -17 0 -38 0c-3 0 -6 0 -9 -1l0 1 -17 0 -15 0 0 0 -17 0 -28 0 -20 0c-2 0 -3 0 -5 0l-1 0 -13 0 -4 0 -28 0 -6 0 -25 0 0 0 -6 0 -12 0c-5 0 -9 -1 -14 -2l0 0c-1 0 -2 -1 -3 -1 -5 3 -11 4 -17 4l0 0 -28 0 0 0c-2 0 -5 0 -7 0l0 0 -17 0 -14 0zm-894 -12l215 185 -304 231 23 69 293 -67 -324 245 -61 94 83 60 983 -188 319 64 437 -108c110 43 214 82 320 119 115 40 231 81 349 104 101 20 204 28 308 1 -98 -137 -242 -236 -386 -320l-70 -44c-70 -56 -105 -89 -184 -128l30 -184 -198 -151 54 -462 -95 -25 -158 43 -355 194 37 -142 -123 4 -85 -212 -79 -21 -45 329 23 8 -145 68 50 52 -48 -15 -103 -17c-67 12 -96 57 -71 122 -104 5 -118 2 -218 33l0 44 15 33 151 0c11 0 22 1 31 4 11 3 20 7 28 12l0 0c11 7 19 16 25 26 5 8 7 16 9 24 1 -2 1 -5 2 -7 4 -13 11 -23 20 -32l0 0c9 -9 20 -16 32 -20 12 -5 24 -7 38 -7l221 0c15 0 28 2 40 6l0 0c13 5 24 12 33 21 9 9 16 19 20 32 4 11 6 24 6 38l0 319c0 15 -2 28 -6 39 -5 14 -13 25 -23 33l0 0c-10 8 -21 14 -33 18 -12 4 -25 7 -37 7l-221 0c-28 0 -51 -9 -69 -28l0 0c-9 -9 -16 -19 -20 -32 -1 -4 -3 -8 -3 -13l0 41 0 32 -32 0 -349 0 -32 0 0 -32 0 -103c0 -12 2 -24 7 -35 5 -11 11 -21 20 -30l0 0c6 -6 13 -12 20 -17 7 -5 15 -10 24 -15l0 0c8 -5 18 -10 29 -16l0 0c9 -5 21 -11 37 -19l0 0c15 -8 25 -13 31 -16l2 -1 -22 0 -102 0 -32 0 0 -32 0 -30 -25 1 -249 -164 -63 -24zm393 25c-66 5 -104 67 -78 132l22 13 0 -60c0 -11 2 -22 5 -32 3 -11 8 -20 15 -28l0 0c8 -10 18 -17 29 -23 2 -1 4 -2 7 -3zm110 219c4 -2 7 -4 9 -5l0 0c6 -3 10 -6 15 -8 4 -2 -6 3 12 -7l0 0c5 -3 10 -5 14 -8 4 -3 7 -5 10 -6 1 -1 3 -2 4 -4 1 -1 1 -1 1 -1l0 0 0 -79c-1 0 -1 0 -2 0l-61 0c-1 0 -1 0 -2 0l0 92 0 27zm395 184l83 0 0 -303 -83 0 0 303zm502 -377l0 450 0 32 -32 0 -102 0 -32 0 0 -32 0 -304 -55 0 -32 0 0 -32 0 -38 0 -32 32 0c14 0 27 -2 39 -5 11 -3 21 -8 30 -14 5 -4 10 -9 14 -15 4 -6 8 -13 11 -22l7 -22 23 0 65 0 32 0 0 32zm423 363l109 88c21 -69 35 -123 107 -154 -32 -17 -104 -56 -171 -57 -15 0 -31 1 -45 5l0 -39c0 -16 -1 -30 -3 -41 -3 -14 -8 -26 -15 -34l-1 -1c-19 -23 -47 -34 -84 -34l-128 0c-6 0 -12 0 -18 1l0 -22 217 0 32 0 0 -32 0 -42 0 -32 -32 0 -352 0 -32 0 0 32 0 226 0 32 32 0 72 0 0 0 0 0 29 0 32 0 0 -32 0 -13c0 -2 0 -3 1 -4 1 -1 2 -3 4 -4 4 -3 10 -4 18 -4l56 0c2 0 3 0 4 0 0 1 1 3 1 4 1 3 1 5 1 8l0 164 -83 0 0 -73 0 -32 -32 0 -103 0 -32 0 0 32 0 81c0 14 2 27 6 38 4 12 11 23 20 32l0 0c19 18 42 28 69 28l221 0c13 0 25 -2 37 -7 12 -4 23 -10 33 -18l0 0c11 -8 18 -19 23 -33 4 -11 6 -25 6 -39l0 -22zm133 109l-1 -13c21 -75 32 -117 106 -150l154 122c11 10 10 19 4 30 -16 24 -66 45 -88 48 -58 9 -123 -12 -175 -37z"/></g></svg>